<?xml version="1.0" encoding="UTF-8" standalone="no"?>
<!DOCTYPE svg PUBLIC "-//W3C//DTD SVG 1.1//EN"
 "http://www.w3.org/Graphics/SVG/1.1/DTD/svg11.dtd">
<!-- Generated by graphviz version 2.48.0 (20210717.1556)
 -->
<!-- Title: dependency&#45;cruiser output Pages: 1 -->
<svg width="247pt" height="140pt"
 viewBox="0.00 0.00 247.00 140.00" xmlns="http://www.w3.org/2000/svg" xmlns:xlink="http://www.w3.org/1999/xlink">
<g id="graph0" class="graph" transform="scale(1 1) rotate(0) translate(4 136)">
<title>dependency&#45;cruiser output</title>
<polygon fill="white" stroke="transparent" points="-4,4 -4,-136 243,-136 243,4 -4,4"/>
<g id="clust1" class="cluster">
<title>cluster_src</title>
<path fill="#ffffff" stroke="black" stroke-width="2" d="M20,-8C20,-8 165,-8 165,-8 171,-8 177,-14 177,-20 177,-20 177,-112 177,-112 177,-118 171,-124 165,-124 165,-124 20,-124 20,-124 14,-124 8,-118 8,-112 8,-112 8,-20 8,-20 8,-14 14,-8 20,-8"/>
<text text-anchor="middle" x="92.5" y="-112.8" font-family="Helvetica,sans-Serif" font-weight="bold" font-size="9.00">src</text>
</g>
<g id="clust2" class="cluster">
<title>cluster_src/Components</title>
<path fill="#ffffff" stroke="black" stroke-width="2" d="M28,-16C28,-16 157,-16 157,-16 163,-16 169,-22 169,-28 169,-28 169,-86 169,-86 169,-92 163,-98 157,-98 157,-98 28,-98 28,-98 22,-98 16,-92 16,-86 16,-86 16,-28 16,-28 16,-22 22,-16 28,-16"/>
<text text-anchor="middle" x="92.5" y="-86.8" font-family="Helvetica,sans-Serif" font-weight="bold" font-size="9.00">Components</text>
</g>
<!-- react -->
<g id="node1" class="node">
<title>react</title>
<path fill="#ffffcc" stroke="red" d="M233,-42C233,-42 191,-42 191,-42 188,-42 185,-39 185,-36 185,-36 185,-30 185,-30 185,-27 188,-24 191,-24 191,-24 233,-24 233,-24 236,-24 239,-27 239,-30 239,-30 239,-36 239,-36 239,-39 236,-42 233,-42"/>
<text text-anchor="middle" x="212" y="-30.8" font-family="Helvetica,sans-Serif" font-size="9.00" fill="red">react</text>
</g>
<!-- src/Components/Footer.js -->
<g id="node2" class="node">
<title>src/Components/Footer.js</title>
<g id="a_node2"><a xlink:href="src/Components/Footer.js" xlink:title="Footer.js">
<path fill="#ccffcc" stroke="black" d="M80,-72C80,-72 38,-72 38,-72 35,-72 32,-69 32,-66 32,-66 32,-60 32,-60 32,-57 35,-54 38,-54 38,-54 80,-54 80,-54 83,-54 86,-57 86,-60 86,-60 86,-66 86,-66 86,-69 83,-72 80,-72"/>
<text text-anchor="middle" x="59" y="-60.8" font-family="Helvetica,sans-Serif" font-size="9.00">Footer.js</text>
</a>
</g>
</g>
<!-- src/Components/Note.js -->
<g id="node3" class="node">
<title>src/Components/Note.js</title>
<g id="a_node3"><a xlink:href="src/Components/Note.js" xlink:title="Note.js">
<path fill="#ffffcc" stroke="black" d="M155,-42C155,-42 113,-42 113,-42 110,-42 107,-39 107,-36 107,-36 107,-30 107,-30 107,-27 110,-24 113,-24 113,-24 155,-24 155,-24 158,-24 161,-27 161,-30 161,-30 161,-36 161,-36 161,-39 158,-42 155,-42"/>
<text text-anchor="middle" x="134" y="-30.8" font-family="Helvetica,sans-Serif" font-size="9.00">Note.js</text>
</a>
</g>
</g>
<!-- src/Components/Note.js&#45;&gt;react -->
<g id="edge1" class="edge">
<title>src/Components/Note.js&#45;&gt;react</title>
<path fill="none" stroke="#000000" stroke-width="2" stroke-opacity="0.200000" d="M161.15,-33C166.77,-33 172.76,-33 178.58,-33"/>
<polygon fill="#000000" fill-opacity="0.200000" stroke="#000000" stroke-width="2" stroke-opacity="0.200000" points="178.8,-35.1 184.8,-33 178.8,-30.9 178.8,-35.1"/>
</g>
<!-- src/Components/Notification.js -->
<g id="node4" class="node">
<title>src/Components/Notification.js</title>
<g id="a_node4"><a xlink:href="src/Components/Notification.js" xlink:title="Notification.js">
<path fill="#ffffcc" stroke="black" d="M88,-42C88,-42 30,-42 30,-42 27,-42 24,-39 24,-36 24,-36 24,-30 24,-30 24,-27 27,-24 30,-24 30,-24 88,-24 88,-24 91,-24 94,-27 94,-30 94,-30 94,-36 94,-36 94,-39 91,-42 88,-42"/>
<text text-anchor="middle" x="59" y="-30.8" font-family="Helvetica,sans-Serif" font-size="9.00">Notification.js</text>
</a>
</g>
</g>
<!-- src/Components/Notification.js&#45;&gt;src/Components/Note.js -->
<g id="edge2" class="edge">
<title>src/Components/Notification.js&#45;&gt;src/Components/Note.js</title>
<path fill="none" stroke="#000000" stroke-width="2" stroke-opacity="0.200000" d="M94.36,-33C96.43,-33 98.51,-33 100.58,-33"/>
<polygon fill="#000000" fill-opacity="0.200000" stroke="#000000" stroke-width="2" stroke-opacity="0.200000" points="100.68,-35.1 106.68,-33 100.68,-30.9 100.68,-35.1"/>
</g>
</g>
</svg>
